<?xml version="1.0" encoding="iso-8859-1"?>
<!-- Uploaded to: SVG Repo, www.svgrepo.com, Generator: SVG Repo Mixer Tools -->
<svg height="800px" width="800px" version="1.1" id="Layer_1" xmlns="http://www.w3.org/2000/svg" xmlns:xlink="http://www.w3.org/1999/xlink" 
	 viewBox="0 0 512 512" xml:space="preserve">
<path style="fill:#A6A199;" d="M111.232,256V66.783c0-12.295,9.966-22.261,22.261-22.261h245.014
	c12.295,0,22.261,9.966,22.261,22.261V256c0,12.295-9.966,22.261-22.261,22.261H133.493C121.2,278.261,111.232,268.295,111.232,256z
	"/>
<path style="fill:#88857E;" d="M133.504,33.391h163.079c9.253,8.159,15.096,20.089,15.096,33.391
	c0-13.302,5.844-25.233,15.096-33.391h51.72c12.3,0,22.272,9.966,22.272,22.261v55.652h-44.544h-111.36l0,0
	c-24.6,0-44.544-19.933-44.544-44.522l0,0c0,24.588-19.942,44.522-44.544,44.522h-44.544V55.652
	C111.232,43.357,121.204,33.391,133.504,33.391z"/>
<path style="fill:#B1ACA3;" d="M77.824,0h189.312c24.6,0,44.544,19.933,44.544,44.522l0,0h44.544V0h77.952
	c24.6,0,44.544,19.933,44.544,44.522l0,0c0,24.588-19.944,44.522-44.544,44.522H244.864V44.522H200.32
	c0,24.588-19.942,44.522-44.544,44.522H77.824c-24.6,0-44.544-19.933-44.544-44.522l0,0C33.28,19.933,53.224,0,77.824,0z"/>
<path style="fill:#D9D3CC;" d="M244.864,0h22.272c24.6,0,44.544,19.933,44.544,44.522C311.68,19.933,331.624,0,356.224,0l0,0h77.952
	c9.225,0,17.795,2.803,24.905,7.603c1.185,0.8,2.33,1.655,3.429,2.563c4.4,3.63,8.091,8.086,10.833,13.134
	c3.428,6.309,5.376,13.538,5.376,21.221l0,0l0,0c0,6.147-1.247,12.003-3.501,17.33c-1.128,2.664-2.505,5.195-4.107,7.563
	c-0.8,1.184-1.656,2.328-2.564,3.427c-4.085,4.947-9.218,8.998-15.061,11.812c-1.298,0.626-2.631,1.19-3.996,1.688
	c-4.776,1.747-9.934,2.701-15.315,2.701l0,0h-77.952h-111.36c-24.6,0-44.544-19.933-44.544-44.522l0,0
	C200.32,19.933,220.264,0,244.864,0z"/>
<path style="fill:#90724E;" d="M479.839,409.126l-25.803,12.026c-25.069,11.685-54.386,3.099-69.484-19.017l-233.481,108.82
	c-5.574,2.598-12.2,0.188-14.799-5.384l-0.436-0.936c-2.599-5.571-0.188-12.193,5.386-14.791l233.481-108.82
	c-7.245-25.777,5.019-53.741,30.088-65.426l25.803-12.025c27.87-12.989,60.998-0.938,73.994,26.918l2.183,4.679
	C519.766,363.025,507.708,396.137,479.839,409.126z"/>
<path style="fill:#3A2D18;" d="M469.054,388.452l-23.93,11.154c-16.722,7.794-36.599,0.562-44.397-16.151l-1.31-2.807
	c-7.798-16.713-0.563-36.58,16.159-44.375l23.93-11.154c16.722-7.794,36.599-0.563,44.397,16.151l1.31,2.807
	C493.01,360.791,485.775,380.659,469.054,388.452z"/>
<path style="fill:#5A482F;" d="M390.807,504.22l-0.436,0.936c-2.599,5.571-9.225,7.982-14.799,5.384L142.09,401.72
	c-15.098,22.116-44.415,30.702-69.484,19.017L6.433,389.896c-5.574-2.598-7.986-9.22-5.386-14.791l39.832-85.379
	c2.599-5.571,9.225-7.982,14.799-5.384l66.173,30.841c25.069,11.685,37.333,39.649,30.088,65.426l233.481,108.82
	C390.995,492.026,393.407,498.649,390.807,504.22z"/>
<path style="fill:#D9D3CC;" d="M108.358,394.374l-0.436,0.936c-2.599,5.571-9.225,7.982-14.799,5.384l-53.74-25.047
	c-5.574-2.598-7.985-9.22-5.386-14.791l0.436-0.936c2.599-5.571,9.225-7.982,14.799-5.384l53.74,25.047
	C108.547,382.18,110.957,388.803,108.358,394.374z M119.43,343.779l-53.74-25.047c-5.574-2.598-12.2-0.187-14.799,5.384
	l-0.436,0.936c-2.599,5.571-0.188,12.193,5.386,14.791l53.74,25.047c5.574,2.598,12.2,0.187,14.799-5.384l0.436-0.936
	C127.415,353,125.004,346.377,119.43,343.779z"/>
</svg>